<?xml version="1.0" standalone="no"?>
<!DOCTYPE svg PUBLIC "-//W3C//DTD SVG 20010904//EN"
 "http://www.w3.org/TR/2001/REC-SVG-20010904/DTD/svg10.dtd">
<svg version="1.0" xmlns="http://www.w3.org/2000/svg"
 width="100.000000pt" height="50.000000pt" viewBox="0 0 220.000000 100.000000"
 preserveAspectRatio="xMidYMid meet">

<g transform="translate(0.000000,100.000000) scale(0.100000,-0.100000)"
fill="#f5f5f5" stroke="none">
<path d="M205 906 c-37 -17 -80 -62 -94 -99 -17 -45 -15 -599 3 -640 16 -39
61 -82 99 -96 45 -17 539 -15 580 3 39 16 82 61 96 99 15 38 15 596 0 634 -14
38 -57 83 -96 99 -46 20 -544 19 -588 0z m584 -44 c65 -35 71 -60 71 -302 0
-330 11 -320 -360 -320 -371 0 -360 -10 -360 320 0 331 -12 320 360 320 228 0
259 -2 289 -18z m-576 -651 c38 -15 536 -15 574 0 15 6 38 20 51 31 l22 21 0
-29 c0 -43 -32 -95 -71 -116 -30 -16 -61 -18 -289 -18 -228 0 -259 2 -289 18
-39 21 -71 73 -71 116 l0 29 23 -21 c12 -11 35 -25 50 -31z"/>
<path d="M380 559 l0 -162 83 5 c126 7 169 46 169 158 0 112 -55 159 -184 160
l-68 0 0 -161z m181 92 c26 -26 29 -36 29 -91 0 -55 -3 -65 -29 -91 -26 -25
-37 -29 -85 -29 l-56 0 0 120 0 120 56 0 c48 0 59 -4 85 -29z"/>
</g>
</svg>
