<svg version="1.0" xmlns="http://www.w3.org/2000/svg" width="133.333" height="66.667" viewBox="0 0 220 100"><g fill="#f5f5f5"><path d="M20.5 9.4c-3.7 1.7-8 6.2-9.4 9.9-1.7 4.5-1.5 59.9.3 64 1.6 3.9 6.1 8.2 9.9 9.6 4.5 1.7 53.9 1.5 58-.3 3.9-1.6 8.2-6.1 9.6-9.9 1.5-3.8 1.5-59.6 0-63.4-1.4-3.8-5.7-8.3-9.6-9.9-4.6-2-54.4-1.9-58.8 0zm58.4 4.4c6.5 3.5 7.1 6 7.1 30.2 0 33 1.1 32-36 32s-36 1-36-32c0-33.1-1.2-32 36-32 22.8 0 25.9.2 28.9 1.8zM21.3 78.9c3.8 1.5 53.6 1.5 57.4 0 1.5-.6 3.8-2 5.1-3.1l2.2-2.1v2.9c0 4.3-3.2 9.5-7.1 11.6-3 1.6-6.1 1.8-28.9 1.8-22.8 0-25.9-.2-28.9-1.8-3.9-2.1-7.1-7.3-7.1-11.6v-2.9l2.3 2.1c1.2 1.1 3.5 2.5 5 3.1z"/><path d="M38 44.1v16.2l8.3-.5c12.6-.7 16.9-4.6 16.9-15.8 0-11.2-5.5-15.9-18.4-16H38v16.1zm18.1-9.2c2.6 2.6 2.9 3.6 2.9 9.1s-.3 6.5-2.9 9.1c-2.6 2.5-3.7 2.9-8.5 2.9H42V32h5.6c4.8 0 5.9.4 8.5 2.9z"/></g></svg>